<mxfile host="Electron" modified="2023-05-07T07:44:17.992Z" agent="Mozilla/5.0 (Windows NT 10.0; Win64; x64) AppleWebKit/537.36 (KHTML, like Gecko) draw.io/21.2.1 Chrome/112.0.5615.87 Electron/24.1.2 Safari/537.36" etag="DUzNOro7u0vIUGpbmpao" version="21.2.1" type="device">
  <diagram name="第 1 页" id="tqHv6gNXIxX08ADT5tFh">
    <mxGraphModel dx="898" dy="579" grid="1" gridSize="10" guides="1" tooltips="1" connect="1" arrows="1" fold="1" page="1" pageScale="1" pageWidth="827" pageHeight="1169" math="0" shadow="0">
      <root>
        <mxCell id="0" />
        <mxCell id="1" parent="0" />
        <mxCell id="QuQSCtoFBrH3SINebQhl-10" style="edgeStyle=orthogonalEdgeStyle;rounded=0;orthogonalLoop=1;jettySize=auto;html=1;entryX=0;entryY=0.5;entryDx=0;entryDy=0;curved=1;strokeWidth=3;sketch=1;curveFitting=1;jiggle=2;" edge="1" parent="1" source="QuQSCtoFBrH3SINebQhl-1" target="QuQSCtoFBrH3SINebQhl-7">
          <mxGeometry relative="1" as="geometry" />
        </mxCell>
        <mxCell id="QuQSCtoFBrH3SINebQhl-1" value="" style="rounded=1;whiteSpace=wrap;html=1;arcSize=5;strokeWidth=2;sketch=1;curveFitting=1;jiggle=2;shadow=1;" vertex="1" parent="1">
          <mxGeometry x="160" y="120" width="160" height="320" as="geometry" />
        </mxCell>
        <mxCell id="QuQSCtoFBrH3SINebQhl-2" value="&lt;font color=&quot;#333333&quot; style=&quot;font-size: 18px;&quot;&gt;&lt;b style=&quot;&quot;&gt;客户端发起请求&lt;/b&gt;&lt;/font&gt;" style="text;html=1;strokeColor=none;fillColor=none;align=center;verticalAlign=middle;whiteSpace=wrap;rounded=0;" vertex="1" parent="1">
          <mxGeometry x="170" y="220" width="140" height="30" as="geometry" />
        </mxCell>
        <mxCell id="QuQSCtoFBrH3SINebQhl-3" value="&lt;font color=&quot;#333333&quot; style=&quot;font-size: 18px;&quot;&gt;&lt;b&gt;http://127.0.0.1&lt;/b&gt;&lt;/font&gt;" style="text;html=1;strokeColor=none;fillColor=none;align=center;verticalAlign=middle;whiteSpace=wrap;rounded=0;" vertex="1" parent="1">
          <mxGeometry x="170" y="280" width="140" height="30" as="geometry" />
        </mxCell>
        <mxCell id="QuQSCtoFBrH3SINebQhl-4" value="" style="rounded=1;whiteSpace=wrap;html=1;arcSize=5;sketch=1;curveFitting=1;jiggle=2;shadow=1;strokeWidth=2;" vertex="1" parent="1">
          <mxGeometry x="480" y="120" width="200" height="320" as="geometry" />
        </mxCell>
        <mxCell id="QuQSCtoFBrH3SINebQhl-5" value="&lt;span style=&quot;font-size: 18px;&quot;&gt;&lt;b&gt;&lt;font color=&quot;#333333&quot;&gt;服务器&lt;/font&gt;&lt;/b&gt;&lt;/span&gt;" style="text;html=1;strokeColor=none;fillColor=none;align=center;verticalAlign=middle;whiteSpace=wrap;rounded=0;" vertex="1" parent="1">
          <mxGeometry x="510" y="140" width="140" height="30" as="geometry" />
        </mxCell>
        <mxCell id="QuQSCtoFBrH3SINebQhl-6" style="edgeStyle=orthogonalEdgeStyle;rounded=0;orthogonalLoop=1;jettySize=auto;html=1;exitX=0.5;exitY=1;exitDx=0;exitDy=0;" edge="1" parent="1" source="QuQSCtoFBrH3SINebQhl-5" target="QuQSCtoFBrH3SINebQhl-5">
          <mxGeometry relative="1" as="geometry" />
        </mxCell>
        <mxCell id="QuQSCtoFBrH3SINebQhl-22" value="" style="group" vertex="1" connectable="0" parent="1">
          <mxGeometry x="457" y="173" width="203" height="45" as="geometry" />
        </mxCell>
        <mxCell id="QuQSCtoFBrH3SINebQhl-7" value="&lt;font color=&quot;#333333&quot; size=&quot;1&quot; style=&quot;&quot;&gt;&lt;b style=&quot;font-size: 16px;&quot;&gt;80&lt;/b&gt;&lt;/font&gt;" style="ellipse;whiteSpace=wrap;html=1;aspect=fixed;shadow=0;sketch=1;curveFitting=1;jiggle=2;" vertex="1" parent="QuQSCtoFBrH3SINebQhl-22">
          <mxGeometry width="45" height="45" as="geometry" />
        </mxCell>
        <mxCell id="QuQSCtoFBrH3SINebQhl-8" value="&lt;font color=&quot;#333333&quot; style=&quot;font-size: 16px;&quot;&gt;&lt;b&gt;web server1&lt;/b&gt;&lt;/font&gt;" style="rounded=0;whiteSpace=wrap;html=1;sketch=1;curveFitting=1;jiggle=2;shadow=0;" vertex="1" parent="QuQSCtoFBrH3SINebQhl-22">
          <mxGeometry x="93" y="7" width="110" height="30" as="geometry" />
        </mxCell>
        <mxCell id="QuQSCtoFBrH3SINebQhl-9" style="edgeStyle=orthogonalEdgeStyle;rounded=0;orthogonalLoop=1;jettySize=auto;html=1;exitX=1;exitY=0.5;exitDx=0;exitDy=0;entryX=0;entryY=0.5;entryDx=0;entryDy=0;strokeWidth=3;sketch=1;curveFitting=1;jiggle=2;" edge="1" parent="QuQSCtoFBrH3SINebQhl-22" source="QuQSCtoFBrH3SINebQhl-7" target="QuQSCtoFBrH3SINebQhl-8">
          <mxGeometry relative="1" as="geometry" />
        </mxCell>
        <mxCell id="QuQSCtoFBrH3SINebQhl-23" value="" style="group" vertex="1" connectable="0" parent="1">
          <mxGeometry x="451" y="241" width="209" height="40" as="geometry" />
        </mxCell>
        <mxCell id="QuQSCtoFBrH3SINebQhl-13" value="&lt;font color=&quot;#333333&quot; style=&quot;font-size: 16px;&quot;&gt;&lt;b&gt;web server2&lt;/b&gt;&lt;/font&gt;" style="rounded=0;whiteSpace=wrap;html=1;sketch=1;curveFitting=1;jiggle=2;shadow=0;" vertex="1" parent="QuQSCtoFBrH3SINebQhl-23">
          <mxGeometry x="99" y="5" width="110" height="30" as="geometry" />
        </mxCell>
        <mxCell id="QuQSCtoFBrH3SINebQhl-15" style="edgeStyle=orthogonalEdgeStyle;rounded=0;orthogonalLoop=1;jettySize=auto;html=1;exitX=1;exitY=0.5;exitDx=0;exitDy=0;entryX=0;entryY=0.5;entryDx=0;entryDy=0;strokeWidth=3;sketch=1;curveFitting=1;jiggle=2;" edge="1" parent="QuQSCtoFBrH3SINebQhl-23" source="QuQSCtoFBrH3SINebQhl-14" target="QuQSCtoFBrH3SINebQhl-13">
          <mxGeometry relative="1" as="geometry" />
        </mxCell>
        <mxCell id="QuQSCtoFBrH3SINebQhl-14" value="&lt;font style=&quot;font-size: 16px;&quot;&gt;&lt;b&gt;443&lt;/b&gt;&lt;/font&gt;" style="ellipse;whiteSpace=wrap;html=1;sketch=1;curveFitting=1;jiggle=2;" vertex="1" parent="QuQSCtoFBrH3SINebQhl-23">
          <mxGeometry width="60" height="40" as="geometry" />
        </mxCell>
        <mxCell id="QuQSCtoFBrH3SINebQhl-24" value="" style="group" vertex="1" connectable="0" parent="1">
          <mxGeometry x="451" y="306" width="209" height="40" as="geometry" />
        </mxCell>
        <mxCell id="QuQSCtoFBrH3SINebQhl-16" value="&lt;font color=&quot;#333333&quot; style=&quot;font-size: 16px;&quot;&gt;&lt;b&gt;web server3&lt;/b&gt;&lt;/font&gt;" style="rounded=0;whiteSpace=wrap;html=1;sketch=1;curveFitting=1;jiggle=2;shadow=0;" vertex="1" parent="QuQSCtoFBrH3SINebQhl-24">
          <mxGeometry x="99" y="5" width="110" height="30" as="geometry" />
        </mxCell>
        <mxCell id="QuQSCtoFBrH3SINebQhl-17" style="edgeStyle=orthogonalEdgeStyle;rounded=0;orthogonalLoop=1;jettySize=auto;html=1;exitX=1;exitY=0.5;exitDx=0;exitDy=0;entryX=0;entryY=0.5;entryDx=0;entryDy=0;strokeWidth=3;sketch=1;curveFitting=1;jiggle=2;" edge="1" parent="QuQSCtoFBrH3SINebQhl-24" source="QuQSCtoFBrH3SINebQhl-18" target="QuQSCtoFBrH3SINebQhl-16">
          <mxGeometry relative="1" as="geometry" />
        </mxCell>
        <mxCell id="QuQSCtoFBrH3SINebQhl-18" value="&lt;font style=&quot;font-size: 16px;&quot;&gt;&lt;b&gt;3006&lt;/b&gt;&lt;/font&gt;" style="ellipse;whiteSpace=wrap;html=1;sketch=1;curveFitting=1;jiggle=2;" vertex="1" parent="QuQSCtoFBrH3SINebQhl-24">
          <mxGeometry width="60" height="40" as="geometry" />
        </mxCell>
        <mxCell id="QuQSCtoFBrH3SINebQhl-29" value="" style="group" vertex="1" connectable="0" parent="1">
          <mxGeometry x="451" y="370" width="209" height="43" as="geometry" />
        </mxCell>
        <mxCell id="QuQSCtoFBrH3SINebQhl-21" value="&lt;font style=&quot;font-size: 16px;&quot;&gt;&lt;b&gt;xxx&lt;/b&gt;&lt;/font&gt;" style="ellipse;whiteSpace=wrap;html=1;sketch=1;curveFitting=1;jiggle=2;" vertex="1" parent="QuQSCtoFBrH3SINebQhl-29">
          <mxGeometry width="60" height="43" as="geometry" />
        </mxCell>
        <mxCell id="QuQSCtoFBrH3SINebQhl-25" value="" style="group" vertex="1" connectable="0" parent="QuQSCtoFBrH3SINebQhl-29">
          <mxGeometry x="99" y="6.5" width="110" height="30" as="geometry" />
        </mxCell>
        <mxCell id="QuQSCtoFBrH3SINebQhl-19" value="&lt;font color=&quot;#333333&quot; style=&quot;font-size: 16px;&quot;&gt;&lt;b&gt;etc...&lt;/b&gt;&lt;/font&gt;" style="rounded=0;whiteSpace=wrap;html=1;sketch=1;curveFitting=1;jiggle=2;shadow=0;" vertex="1" parent="QuQSCtoFBrH3SINebQhl-25">
          <mxGeometry width="110" height="30" as="geometry" />
        </mxCell>
        <mxCell id="QuQSCtoFBrH3SINebQhl-28" style="edgeStyle=orthogonalEdgeStyle;rounded=0;orthogonalLoop=1;jettySize=auto;html=1;exitX=1;exitY=0.5;exitDx=0;exitDy=0;entryX=0;entryY=0.5;entryDx=0;entryDy=0;strokeWidth=3;sketch=1;curveFitting=1;jiggle=2;" edge="1" parent="QuQSCtoFBrH3SINebQhl-29" source="QuQSCtoFBrH3SINebQhl-21" target="QuQSCtoFBrH3SINebQhl-19">
          <mxGeometry relative="1" as="geometry" />
        </mxCell>
      </root>
    </mxGraphModel>
  </diagram>
</mxfile>
